<mxfile host="app.diagrams.net" agent="Mozilla/5.0 (Windows NT 10.0; Win64; x64) AppleWebKit/537.36 (KHTML, like Gecko) Chrome/128.0.0.0 Safari/537.36" version="24.7.12">
  <diagram name="Page-1" id="JPz2d-SCGEU3tnfsrOps">
    <mxGraphModel dx="1393" dy="821" grid="1" gridSize="10" guides="1" tooltips="1" connect="1" arrows="1" fold="1" page="1" pageScale="1" pageWidth="850" pageHeight="1100" math="0" shadow="0">
      <root>
        <mxCell id="0" />
        <mxCell id="1" parent="0" />
        <mxCell id="iq3cP7XhnuloMNpJ64wT-87" value="VPC" style="points=[[0,0],[0.25,0],[0.5,0],[0.75,0],[1,0],[1,0.25],[1,0.5],[1,0.75],[1,1],[0.75,1],[0.5,1],[0.25,1],[0,1],[0,0.75],[0,0.5],[0,0.25]];outlineConnect=0;gradientColor=none;html=1;whiteSpace=wrap;fontSize=12;fontStyle=0;container=1;pointerEvents=0;collapsible=0;recursiveResize=0;shape=mxgraph.aws4.group;grIcon=mxgraph.aws4.group_vpc2;strokeColor=#8C4FFF;fillColor=none;verticalAlign=top;align=left;spacingLeft=30;fontColor=#AAB7B8;dashed=0;" vertex="1" parent="1">
          <mxGeometry x="170" y="120" width="570" height="520" as="geometry" />
        </mxCell>
        <mxCell id="iq3cP7XhnuloMNpJ64wT-90" value="Public subnet" style="points=[[0,0],[0.25,0],[0.5,0],[0.75,0],[1,0],[1,0.25],[1,0.5],[1,0.75],[1,1],[0.75,1],[0.5,1],[0.25,1],[0,1],[0,0.75],[0,0.5],[0,0.25]];outlineConnect=0;gradientColor=none;html=1;whiteSpace=wrap;fontSize=12;fontStyle=0;container=1;pointerEvents=0;collapsible=0;recursiveResize=0;shape=mxgraph.aws4.group;grIcon=mxgraph.aws4.group_security_group;grStroke=0;strokeColor=#7AA116;fillColor=#F2F6E8;verticalAlign=top;align=left;spacingLeft=30;fontColor=#248814;dashed=0;" vertex="1" parent="iq3cP7XhnuloMNpJ64wT-87">
          <mxGeometry x="15" y="160" width="240" height="320" as="geometry" />
        </mxCell>
        <mxCell id="iq3cP7XhnuloMNpJ64wT-83" value="Availability Zone" style="fillColor=none;strokeColor=#147EBA;dashed=1;verticalAlign=top;fontStyle=0;fontColor=#147EBA;whiteSpace=wrap;html=1;" vertex="1" parent="iq3cP7XhnuloMNpJ64wT-90">
          <mxGeometry y="-40" width="240" height="360" as="geometry" />
        </mxCell>
        <mxCell id="iq3cP7XhnuloMNpJ64wT-92" value="Private subnet" style="points=[[0,0],[0.25,0],[0.5,0],[0.75,0],[1,0],[1,0.25],[1,0.5],[1,0.75],[1,1],[0.75,1],[0.5,1],[0.25,1],[0,1],[0,0.75],[0,0.5],[0,0.25]];outlineConnect=0;gradientColor=none;html=1;whiteSpace=wrap;fontSize=12;fontStyle=0;container=1;pointerEvents=0;collapsible=0;recursiveResize=0;shape=mxgraph.aws4.group;grIcon=mxgraph.aws4.group_security_group;grStroke=0;strokeColor=#00A4A6;fillColor=#E6F6F7;verticalAlign=top;align=left;spacingLeft=30;fontColor=#147EBA;dashed=0;" vertex="1" parent="iq3cP7XhnuloMNpJ64wT-90">
          <mxGeometry y="75" width="240" height="245" as="geometry" />
        </mxCell>
        <mxCell id="iq3cP7XhnuloMNpJ64wT-93" value="Private subnet" style="points=[[0,0],[0.25,0],[0.5,0],[0.75,0],[1,0],[1,0.25],[1,0.5],[1,0.75],[1,1],[0.75,1],[0.5,1],[0.25,1],[0,1],[0,0.75],[0,0.5],[0,0.25]];outlineConnect=0;html=1;whiteSpace=wrap;fontSize=12;fontStyle=0;container=1;pointerEvents=0;collapsible=0;recursiveResize=0;shape=mxgraph.aws4.group;grIcon=mxgraph.aws4.group_security_group;grStroke=0;strokeColor=#d6b656;fillColor=#fff2cc;verticalAlign=top;align=left;spacingLeft=30;dashed=0;" vertex="1" parent="iq3cP7XhnuloMNpJ64wT-92">
          <mxGeometry x="5" y="75" width="235" height="165" as="geometry" />
        </mxCell>
        <mxCell id="iq3cP7XhnuloMNpJ64wT-109" value="" style="outlineConnect=0;dashed=0;verticalLabelPosition=bottom;verticalAlign=top;align=center;html=1;shape=mxgraph.aws3.rds;fillColor=#2E73B8;gradientColor=none;" vertex="1" parent="iq3cP7XhnuloMNpJ64wT-93">
          <mxGeometry x="79" y="39" width="72" height="81" as="geometry" />
        </mxCell>
        <mxCell id="iq3cP7XhnuloMNpJ64wT-127" value="" style="endArrow=classic;html=1;rounded=0;" edge="1" parent="iq3cP7XhnuloMNpJ64wT-93">
          <mxGeometry width="50" height="50" relative="1" as="geometry">
            <mxPoint x="132" y="-10" as="sourcePoint" />
            <mxPoint x="132" y="30" as="targetPoint" />
          </mxGeometry>
        </mxCell>
        <mxCell id="iq3cP7XhnuloMNpJ64wT-158" value="RDS" style="text;html=1;align=center;verticalAlign=middle;resizable=0;points=[];autosize=1;strokeColor=none;fillColor=none;" vertex="1" parent="iq3cP7XhnuloMNpJ64wT-93">
          <mxGeometry x="140" y="100" width="50" height="30" as="geometry" />
        </mxCell>
        <mxCell id="iq3cP7XhnuloMNpJ64wT-106" value="" style="sketch=0;points=[[0,0,0],[0.25,0,0],[0.5,0,0],[0.75,0,0],[1,0,0],[0,1,0],[0.25,1,0],[0.5,1,0],[0.75,1,0],[1,1,0],[0,0.25,0],[0,0.5,0],[0,0.75,0],[1,0.25,0],[1,0.5,0],[1,0.75,0]];outlineConnect=0;fontColor=#232F3E;fillColor=#ED7100;strokeColor=#ffffff;dashed=0;verticalLabelPosition=bottom;verticalAlign=top;align=center;html=1;fontSize=12;fontStyle=0;aspect=fixed;shape=mxgraph.aws4.resourceIcon;resIcon=mxgraph.aws4.ec2;" vertex="1" parent="iq3cP7XhnuloMNpJ64wT-92">
          <mxGeometry x="115" y="15" width="45" height="45" as="geometry" />
        </mxCell>
        <mxCell id="iq3cP7XhnuloMNpJ64wT-105" value="" style="sketch=0;points=[[0,0,0],[0.25,0,0],[0.5,0,0],[0.75,0,0],[1,0,0],[0,1,0],[0.25,1,0],[0.5,1,0],[0.75,1,0],[1,1,0],[0,0.25,0],[0,0.5,0],[0,0.75,0],[1,0.25,0],[1,0.5,0],[1,0.75,0]];outlineConnect=0;fontColor=#232F3E;fillColor=#ED7100;strokeColor=#ffffff;dashed=0;verticalLabelPosition=bottom;verticalAlign=top;align=center;html=1;fontSize=12;fontStyle=0;aspect=fixed;shape=mxgraph.aws4.resourceIcon;resIcon=mxgraph.aws4.ec2;" vertex="1" parent="iq3cP7XhnuloMNpJ64wT-92">
          <mxGeometry x="175" y="15" width="45" height="45" as="geometry" />
        </mxCell>
        <mxCell id="iq3cP7XhnuloMNpJ64wT-159" value="Security&amp;nbsp;&lt;div&gt;Group&lt;/div&gt;" style="text;html=1;align=center;verticalAlign=middle;resizable=0;points=[];autosize=1;strokeColor=none;fillColor=none;" vertex="1" parent="iq3cP7XhnuloMNpJ64wT-92">
          <mxGeometry x="15" y="25" width="70" height="40" as="geometry" />
        </mxCell>
        <mxCell id="iq3cP7XhnuloMNpJ64wT-142" value="" style="sketch=0;pointerEvents=1;shadow=0;dashed=0;html=1;strokeColor=none;fillColor=#505050;labelPosition=center;verticalLabelPosition=bottom;verticalAlign=top;outlineConnect=0;align=center;shape=mxgraph.office.servers.universal_security_group;" vertex="1" parent="iq3cP7XhnuloMNpJ64wT-90">
          <mxGeometry x="75" y="110" width="28" height="28" as="geometry" />
        </mxCell>
        <mxCell id="iq3cP7XhnuloMNpJ64wT-145" value="" style="sketch=0;pointerEvents=1;shadow=0;dashed=0;html=1;strokeColor=none;fillColor=#505050;labelPosition=center;verticalLabelPosition=bottom;verticalAlign=top;outlineConnect=0;align=center;shape=mxgraph.office.servers.universal_security_group;" vertex="1" parent="iq3cP7XhnuloMNpJ64wT-90">
          <mxGeometry x="35" y="230" width="28" height="28" as="geometry" />
        </mxCell>
        <mxCell id="iq3cP7XhnuloMNpJ64wT-156" value="EC2" style="text;html=1;align=center;verticalAlign=middle;resizable=0;points=[];autosize=1;strokeColor=none;fillColor=none;" vertex="1" parent="iq3cP7XhnuloMNpJ64wT-90">
          <mxGeometry x="145" y="100" width="50" height="30" as="geometry" />
        </mxCell>
        <mxCell id="iq3cP7XhnuloMNpJ64wT-94" value="Public subnet" style="points=[[0,0],[0.25,0],[0.5,0],[0.75,0],[1,0],[1,0.25],[1,0.5],[1,0.75],[1,1],[0.75,1],[0.5,1],[0.25,1],[0,1],[0,0.75],[0,0.5],[0,0.25]];outlineConnect=0;gradientColor=none;html=1;whiteSpace=wrap;fontSize=12;fontStyle=0;container=1;pointerEvents=0;collapsible=0;recursiveResize=0;shape=mxgraph.aws4.group;grIcon=mxgraph.aws4.group_security_group;grStroke=0;strokeColor=#7AA116;fillColor=#F2F6E8;verticalAlign=top;align=left;spacingLeft=30;fontColor=#248814;dashed=0;" vertex="1" parent="iq3cP7XhnuloMNpJ64wT-87">
          <mxGeometry x="310" y="160" width="240" height="320" as="geometry" />
        </mxCell>
        <mxCell id="iq3cP7XhnuloMNpJ64wT-95" value="Availability Zone" style="fillColor=none;strokeColor=#147EBA;dashed=1;verticalAlign=top;fontStyle=0;fontColor=#147EBA;whiteSpace=wrap;html=1;" vertex="1" parent="iq3cP7XhnuloMNpJ64wT-94">
          <mxGeometry y="-40" width="240" height="360" as="geometry" />
        </mxCell>
        <mxCell id="iq3cP7XhnuloMNpJ64wT-96" value="Private subnet" style="points=[[0,0],[0.25,0],[0.5,0],[0.75,0],[1,0],[1,0.25],[1,0.5],[1,0.75],[1,1],[0.75,1],[0.5,1],[0.25,1],[0,1],[0,0.75],[0,0.5],[0,0.25]];outlineConnect=0;gradientColor=none;html=1;whiteSpace=wrap;fontSize=12;fontStyle=0;container=1;pointerEvents=0;collapsible=0;recursiveResize=0;shape=mxgraph.aws4.group;grIcon=mxgraph.aws4.group_security_group;grStroke=0;strokeColor=#00A4A6;fillColor=#E6F6F7;verticalAlign=top;align=left;spacingLeft=30;fontColor=#147EBA;dashed=0;" vertex="1" parent="iq3cP7XhnuloMNpJ64wT-94">
          <mxGeometry y="75" width="240" height="245" as="geometry" />
        </mxCell>
        <mxCell id="iq3cP7XhnuloMNpJ64wT-97" value="Private subnet" style="points=[[0,0],[0.25,0],[0.5,0],[0.75,0],[1,0],[1,0.25],[1,0.5],[1,0.75],[1,1],[0.75,1],[0.5,1],[0.25,1],[0,1],[0,0.75],[0,0.5],[0,0.25]];outlineConnect=0;html=1;whiteSpace=wrap;fontSize=12;fontStyle=0;container=1;pointerEvents=0;collapsible=0;recursiveResize=0;shape=mxgraph.aws4.group;grIcon=mxgraph.aws4.group_security_group;grStroke=0;strokeColor=#d6b656;fillColor=#fff2cc;verticalAlign=top;align=left;spacingLeft=30;dashed=0;" vertex="1" parent="iq3cP7XhnuloMNpJ64wT-96">
          <mxGeometry x="5" y="75" width="235" height="165" as="geometry" />
        </mxCell>
        <mxCell id="iq3cP7XhnuloMNpJ64wT-126" value="" style="endArrow=classic;html=1;rounded=0;" edge="1" parent="iq3cP7XhnuloMNpJ64wT-97">
          <mxGeometry width="50" height="50" relative="1" as="geometry">
            <mxPoint x="137.07999999999993" y="-10" as="sourcePoint" />
            <mxPoint x="137.07999999999993" y="30" as="targetPoint" />
          </mxGeometry>
        </mxCell>
        <mxCell id="iq3cP7XhnuloMNpJ64wT-107" value="" style="sketch=0;points=[[0,0,0],[0.25,0,0],[0.5,0,0],[0.75,0,0],[1,0,0],[0,1,0],[0.25,1,0],[0.5,1,0],[0.75,1,0],[1,1,0],[0,0.25,0],[0,0.5,0],[0,0.75,0],[1,0.25,0],[1,0.5,0],[1,0.75,0]];outlineConnect=0;fontColor=#232F3E;fillColor=#ED7100;strokeColor=#ffffff;dashed=0;verticalLabelPosition=bottom;verticalAlign=top;align=center;html=1;fontSize=12;fontStyle=0;aspect=fixed;shape=mxgraph.aws4.resourceIcon;resIcon=mxgraph.aws4.ec2;" vertex="1" parent="iq3cP7XhnuloMNpJ64wT-94">
          <mxGeometry x="180" y="90" width="45" height="45" as="geometry" />
        </mxCell>
        <mxCell id="iq3cP7XhnuloMNpJ64wT-108" value="" style="sketch=0;points=[[0,0,0],[0.25,0,0],[0.5,0,0],[0.75,0,0],[1,0,0],[0,1,0],[0.25,1,0],[0.5,1,0],[0.75,1,0],[1,1,0],[0,0.25,0],[0,0.5,0],[0,0.75,0],[1,0.25,0],[1,0.5,0],[1,0.75,0]];outlineConnect=0;fontColor=#232F3E;fillColor=#ED7100;strokeColor=#ffffff;dashed=0;verticalLabelPosition=bottom;verticalAlign=top;align=center;html=1;fontSize=12;fontStyle=0;aspect=fixed;shape=mxgraph.aws4.resourceIcon;resIcon=mxgraph.aws4.ec2;" vertex="1" parent="iq3cP7XhnuloMNpJ64wT-94">
          <mxGeometry x="120" y="90" width="45" height="45" as="geometry" />
        </mxCell>
        <mxCell id="iq3cP7XhnuloMNpJ64wT-141" style="edgeStyle=orthogonalEdgeStyle;rounded=0;orthogonalLoop=1;jettySize=auto;html=1;" edge="1" parent="iq3cP7XhnuloMNpJ64wT-94" source="iq3cP7XhnuloMNpJ64wT-116">
          <mxGeometry relative="1" as="geometry">
            <mxPoint x="-30" y="316.5" as="targetPoint" />
          </mxGeometry>
        </mxCell>
        <mxCell id="iq3cP7XhnuloMNpJ64wT-116" value="" style="sketch=0;outlineConnect=0;fontColor=#232F3E;gradientColor=none;fillColor=#8C4FFF;strokeColor=none;dashed=0;verticalLabelPosition=bottom;verticalAlign=top;align=center;html=1;fontSize=12;fontStyle=0;aspect=fixed;pointerEvents=1;shape=mxgraph.aws4.nat_gateway;rotation=90;" vertex="1" parent="iq3cP7XhnuloMNpJ64wT-94">
          <mxGeometry x="93.5" y="290" width="53" height="53" as="geometry" />
        </mxCell>
        <mxCell id="iq3cP7XhnuloMNpJ64wT-143" value="" style="sketch=0;pointerEvents=1;shadow=0;dashed=0;html=1;strokeColor=none;fillColor=#505050;labelPosition=center;verticalLabelPosition=bottom;verticalAlign=top;outlineConnect=0;align=center;shape=mxgraph.office.servers.universal_security_group;" vertex="1" parent="iq3cP7XhnuloMNpJ64wT-94">
          <mxGeometry x="80" y="107" width="28" height="28" as="geometry" />
        </mxCell>
        <mxCell id="iq3cP7XhnuloMNpJ64wT-144" value="" style="sketch=0;pointerEvents=1;shadow=0;dashed=0;html=1;strokeColor=none;fillColor=#505050;labelPosition=center;verticalLabelPosition=bottom;verticalAlign=top;outlineConnect=0;align=center;shape=mxgraph.office.servers.universal_security_group;" vertex="1" parent="iq3cP7XhnuloMNpJ64wT-94">
          <mxGeometry x="52" y="210" width="28" height="28" as="geometry" />
        </mxCell>
        <mxCell id="iq3cP7XhnuloMNpJ64wT-157" value="EC2" style="text;html=1;align=center;verticalAlign=middle;resizable=0;points=[];autosize=1;strokeColor=none;fillColor=none;" vertex="1" parent="iq3cP7XhnuloMNpJ64wT-94">
          <mxGeometry x="146.5" y="90" width="50" height="30" as="geometry" />
        </mxCell>
        <mxCell id="iq3cP7XhnuloMNpJ64wT-122" style="edgeStyle=orthogonalEdgeStyle;rounded=0;orthogonalLoop=1;jettySize=auto;html=1;" edge="1" parent="iq3cP7XhnuloMNpJ64wT-87" source="iq3cP7XhnuloMNpJ64wT-146" target="iq3cP7XhnuloMNpJ64wT-92">
          <mxGeometry relative="1" as="geometry">
            <Array as="points">
              <mxPoint x="80" y="56" />
              <mxPoint x="80" y="158" />
              <mxPoint x="135" y="158" />
            </Array>
          </mxGeometry>
        </mxCell>
        <mxCell id="iq3cP7XhnuloMNpJ64wT-101" value="" style="outlineConnect=0;dashed=0;verticalLabelPosition=bottom;verticalAlign=top;align=center;html=1;shape=mxgraph.aws3.application_load_balancer;fillColor=#F58534;gradientColor=none;" vertex="1" parent="iq3cP7XhnuloMNpJ64wT-87">
          <mxGeometry x="100" y="32" width="52" height="48" as="geometry" />
        </mxCell>
        <mxCell id="iq3cP7XhnuloMNpJ64wT-123" style="edgeStyle=orthogonalEdgeStyle;rounded=0;orthogonalLoop=1;jettySize=auto;html=1;" edge="1" parent="iq3cP7XhnuloMNpJ64wT-87" source="iq3cP7XhnuloMNpJ64wT-103" target="iq3cP7XhnuloMNpJ64wT-96">
          <mxGeometry relative="1" as="geometry">
            <Array as="points">
              <mxPoint x="480" y="56" />
            </Array>
          </mxGeometry>
        </mxCell>
        <mxCell id="iq3cP7XhnuloMNpJ64wT-103" value="" style="outlineConnect=0;dashed=0;verticalLabelPosition=bottom;verticalAlign=top;align=center;html=1;shape=mxgraph.aws3.application_load_balancer;fillColor=#F58534;gradientColor=none;" vertex="1" parent="iq3cP7XhnuloMNpJ64wT-87">
          <mxGeometry x="404" y="32" width="52" height="48" as="geometry" />
        </mxCell>
        <mxCell id="iq3cP7XhnuloMNpJ64wT-111" style="edgeStyle=orthogonalEdgeStyle;rounded=0;orthogonalLoop=1;jettySize=auto;html=1;entryX=0;entryY=0.75;entryDx=0;entryDy=0;" edge="1" parent="iq3cP7XhnuloMNpJ64wT-87" source="iq3cP7XhnuloMNpJ64wT-109" target="iq3cP7XhnuloMNpJ64wT-95">
          <mxGeometry relative="1" as="geometry" />
        </mxCell>
        <mxCell id="iq3cP7XhnuloMNpJ64wT-112" value="" style="sketch=0;points=[[0,0,0],[0.25,0,0],[0.5,0,0],[0.75,0,0],[1,0,0],[0,1,0],[0.25,1,0],[0.5,1,0],[0.75,1,0],[1,1,0],[0,0.25,0],[0,0.5,0],[0,0.75,0],[1,0.25,0],[1,0.5,0],[1,0.75,0]];outlineConnect=0;fontColor=#232F3E;fillColor=#ED7100;strokeColor=#ffffff;dashed=0;verticalLabelPosition=bottom;verticalAlign=top;align=center;html=1;fontSize=12;fontStyle=0;aspect=fixed;shape=mxgraph.aws4.resourceIcon;resIcon=mxgraph.aws4.auto_scaling2;" vertex="1" parent="iq3cP7XhnuloMNpJ64wT-87">
          <mxGeometry x="265" y="250" width="40" height="40" as="geometry" />
        </mxCell>
        <mxCell id="iq3cP7XhnuloMNpJ64wT-113" style="edgeStyle=orthogonalEdgeStyle;rounded=0;orthogonalLoop=1;jettySize=auto;html=1;entryX=0.99;entryY=0.419;entryDx=0;entryDy=0;entryPerimeter=0;" edge="1" parent="iq3cP7XhnuloMNpJ64wT-87" source="iq3cP7XhnuloMNpJ64wT-112" target="iq3cP7XhnuloMNpJ64wT-83">
          <mxGeometry relative="1" as="geometry" />
        </mxCell>
        <mxCell id="iq3cP7XhnuloMNpJ64wT-114" style="edgeStyle=orthogonalEdgeStyle;rounded=0;orthogonalLoop=1;jettySize=auto;html=1;entryX=0.012;entryY=0.414;entryDx=0;entryDy=0;entryPerimeter=0;" edge="1" parent="iq3cP7XhnuloMNpJ64wT-87" source="iq3cP7XhnuloMNpJ64wT-112" target="iq3cP7XhnuloMNpJ64wT-95">
          <mxGeometry relative="1" as="geometry" />
        </mxCell>
        <mxCell id="iq3cP7XhnuloMNpJ64wT-140" style="edgeStyle=orthogonalEdgeStyle;rounded=0;orthogonalLoop=1;jettySize=auto;html=1;" edge="1" parent="iq3cP7XhnuloMNpJ64wT-87" source="iq3cP7XhnuloMNpJ64wT-115">
          <mxGeometry relative="1" as="geometry">
            <mxPoint x="290" y="530" as="targetPoint" />
          </mxGeometry>
        </mxCell>
        <mxCell id="iq3cP7XhnuloMNpJ64wT-115" value="" style="sketch=0;outlineConnect=0;fontColor=#232F3E;gradientColor=none;fillColor=#8C4FFF;strokeColor=none;dashed=0;verticalLabelPosition=bottom;verticalAlign=top;align=center;html=1;fontSize=12;fontStyle=0;aspect=fixed;pointerEvents=1;shape=mxgraph.aws4.nat_gateway;rotation=-90;" vertex="1" parent="iq3cP7XhnuloMNpJ64wT-87">
          <mxGeometry x="100" y="450" width="53" height="53" as="geometry" />
        </mxCell>
        <mxCell id="iq3cP7XhnuloMNpJ64wT-146" value="" style="sketch=0;outlineConnect=0;fontColor=#232F3E;gradientColor=none;fillColor=#8C4FFF;strokeColor=none;dashed=0;verticalLabelPosition=bottom;verticalAlign=top;align=center;html=1;fontSize=12;fontStyle=0;aspect=fixed;pointerEvents=1;shape=mxgraph.aws4.nat_gateway;rotation=-90;" vertex="1" parent="iq3cP7XhnuloMNpJ64wT-87">
          <mxGeometry x="61" y="100" width="38" height="38" as="geometry" />
        </mxCell>
        <mxCell id="iq3cP7XhnuloMNpJ64wT-147" value="" style="edgeStyle=orthogonalEdgeStyle;rounded=0;orthogonalLoop=1;jettySize=auto;html=1;" edge="1" parent="iq3cP7XhnuloMNpJ64wT-87" source="iq3cP7XhnuloMNpJ64wT-101" target="iq3cP7XhnuloMNpJ64wT-146">
          <mxGeometry relative="1" as="geometry">
            <mxPoint x="270" y="176" as="sourcePoint" />
            <mxPoint x="305" y="355" as="targetPoint" />
            <Array as="points" />
          </mxGeometry>
        </mxCell>
        <mxCell id="iq3cP7XhnuloMNpJ64wT-148" value="" style="sketch=0;outlineConnect=0;fontColor=#232F3E;gradientColor=none;fillColor=#8C4FFF;strokeColor=none;dashed=0;verticalLabelPosition=bottom;verticalAlign=top;align=center;html=1;fontSize=12;fontStyle=0;aspect=fixed;pointerEvents=1;shape=mxgraph.aws4.nat_gateway;rotation=-90;" vertex="1" parent="iq3cP7XhnuloMNpJ64wT-87">
          <mxGeometry x="470" y="100" width="38" height="38" as="geometry" />
        </mxCell>
        <mxCell id="iq3cP7XhnuloMNpJ64wT-152" value="Load&lt;div&gt;Balancer&lt;/div&gt;" style="text;html=1;align=center;verticalAlign=middle;resizable=0;points=[];autosize=1;strokeColor=none;fillColor=none;" vertex="1" parent="iq3cP7XhnuloMNpJ64wT-87">
          <mxGeometry x="140" y="60" width="70" height="40" as="geometry" />
        </mxCell>
        <mxCell id="iq3cP7XhnuloMNpJ64wT-153" value="Load&lt;div&gt;Balancer&lt;/div&gt;" style="text;html=1;align=center;verticalAlign=middle;resizable=0;points=[];autosize=1;strokeColor=none;fillColor=none;" vertex="1" parent="iq3cP7XhnuloMNpJ64wT-87">
          <mxGeometry x="334" y="60" width="70" height="40" as="geometry" />
        </mxCell>
        <mxCell id="iq3cP7XhnuloMNpJ64wT-154" value="N/W&amp;nbsp;&lt;div&gt;ACL&lt;/div&gt;" style="text;html=1;align=center;verticalAlign=middle;resizable=0;points=[];autosize=1;strokeColor=none;fillColor=none;" vertex="1" parent="iq3cP7XhnuloMNpJ64wT-87">
          <mxGeometry x="15" y="80" width="50" height="40" as="geometry" />
        </mxCell>
        <mxCell id="iq3cP7XhnuloMNpJ64wT-155" value="N/W&amp;nbsp;&lt;div&gt;ACL&lt;/div&gt;" style="text;html=1;align=center;verticalAlign=middle;resizable=0;points=[];autosize=1;strokeColor=none;fillColor=none;" vertex="1" parent="iq3cP7XhnuloMNpJ64wT-87">
          <mxGeometry x="500" y="80" width="50" height="40" as="geometry" />
        </mxCell>
        <mxCell id="iq3cP7XhnuloMNpJ64wT-99" value="" style="outlineConnect=0;dashed=0;verticalLabelPosition=bottom;verticalAlign=top;align=center;html=1;shape=mxgraph.aws3.internet_gateway;fillColor=#F58534;gradientColor=none;" vertex="1" parent="1">
          <mxGeometry x="417" y="80" width="69" height="72" as="geometry" />
        </mxCell>
        <mxCell id="iq3cP7XhnuloMNpJ64wT-100" value="Internet&lt;div&gt;Gateway&lt;/div&gt;" style="text;html=1;align=center;verticalAlign=middle;resizable=0;points=[];autosize=1;strokeColor=none;fillColor=none;" vertex="1" parent="1">
          <mxGeometry x="416" y="40" width="70" height="40" as="geometry" />
        </mxCell>
        <mxCell id="iq3cP7XhnuloMNpJ64wT-117" style="edgeStyle=orthogonalEdgeStyle;rounded=0;orthogonalLoop=1;jettySize=auto;html=1;entryX=1;entryY=0.5;entryDx=0;entryDy=0;entryPerimeter=0;" edge="1" parent="1" source="iq3cP7XhnuloMNpJ64wT-99" target="iq3cP7XhnuloMNpJ64wT-101">
          <mxGeometry relative="1" as="geometry">
            <Array as="points">
              <mxPoint x="451" y="176" />
            </Array>
          </mxGeometry>
        </mxCell>
        <mxCell id="iq3cP7XhnuloMNpJ64wT-118" style="edgeStyle=orthogonalEdgeStyle;rounded=0;orthogonalLoop=1;jettySize=auto;html=1;entryX=0;entryY=0.5;entryDx=0;entryDy=0;entryPerimeter=0;" edge="1" parent="1" source="iq3cP7XhnuloMNpJ64wT-99" target="iq3cP7XhnuloMNpJ64wT-103">
          <mxGeometry relative="1" as="geometry">
            <Array as="points">
              <mxPoint x="451" y="176" />
            </Array>
          </mxGeometry>
        </mxCell>
      </root>
    </mxGraphModel>
  </diagram>
</mxfile>
